<!-- Generated by IcoMoon.io -->
<svg version="1.1" xmlns="http://www.w3.org/2000/svg" width="1024" height="1024" viewBox="0 0 1024 1024">
<title></title>
<g id="icomoon-ignore">
</g>
<path d="M457.2 500c-22.6 0-37.8 15.8-37.8 39.5 0 23.2 15.2 38.9 37.8 38.9 22.3 0 37.5-15.8 37.5-38.9 0-23.7-15.2-39.5-37.5-39.5zM457.2 500c-22.6 0-37.8 15.8-37.8 39.5 0 23.2 15.2 38.9 37.8 38.9 22.3 0 37.5-15.8 37.5-38.9 0-23.7-15.2-39.5-37.5-39.5zM457.2 500c-22.6 0-37.8 15.8-37.8 39.5 0 23.2 15.2 38.9 37.8 38.9 22.3 0 37.5-15.8 37.5-38.9 0-23.7-15.2-39.5-37.5-39.5zM677.8 432.3c-22.3 0-37.5 15.8-37.5 38.9 0 23.8 15.2 39.8 37.5 39.8s37.8-16.4 37.8-39.8c0-23.2-15.2-38.9-37.8-38.9zM677.8 432.3c-22.3 0-37.5 15.8-37.5 38.9 0 23.8 15.2 39.8 37.5 39.8s37.8-16.4 37.8-39.8c0-23.2-15.2-38.9-37.8-38.9zM457.2 500c-22.6 0-37.8 15.8-37.8 39.5 0 23.2 15.2 38.9 37.8 38.9 22.3 0 37.5-15.8 37.5-38.9 0-23.7-15.2-39.5-37.5-39.5zM457.2 500c-22.6 0-37.8 15.8-37.8 39.5 0 23.2 15.2 38.9 37.8 38.9 22.3 0 37.5-15.8 37.5-38.9 0-23.7-15.2-39.5-37.5-39.5zM677.8 432.3c-22.3 0-37.5 15.8-37.5 38.9 0 23.8 15.2 39.8 37.5 39.8s37.8-16.4 37.8-39.8c0-23.2-15.2-38.9-37.8-38.9zM677.8 432.3c-22.3 0-37.5 15.8-37.5 38.9 0 23.8 15.2 39.8 37.5 39.8s37.8-16.4 37.8-39.8c0-23.2-15.2-38.9-37.8-38.9zM457.2 500c-22.6 0-37.8 15.8-37.8 39.5 0 23.2 15.2 38.9 37.8 38.9 22.3 0 37.5-15.8 37.5-38.9 0-23.7-15.2-39.5-37.5-39.5zM457.2 500c-22.6 0-37.8 15.8-37.8 39.5 0 23.2 15.2 38.9 37.8 38.9 22.3 0 37.5-15.8 37.5-38.9 0-23.7-15.2-39.5-37.5-39.5zM677.8 432.3c-22.3 0-37.5 15.8-37.5 38.9 0 23.8 15.2 39.8 37.5 39.8s37.8-16.4 37.8-39.8c0-23.2-15.2-38.9-37.8-38.9zM677.8 432.3c-22.3 0-37.5 15.8-37.5 38.9 0 23.8 15.2 39.8 37.5 39.8s37.8-16.4 37.8-39.8c0-23.2-15.2-38.9-37.8-38.9zM457.2 500c-22.6 0-37.8 15.8-37.8 39.5 0 23.2 15.2 38.9 37.8 38.9 22.3 0 37.5-15.8 37.5-38.9 0-23.7-15.2-39.5-37.5-39.5zM788.7 308.6h-560.4c-20.5 0-36.9 16.6-36.9 36.9v342.8c0 20.5 16.4 36.9 36.9 36.9h560.4c20.2 0 36.9-16.4 36.9-36.9v-342.9c0-20.2-16.7-36.8-36.9-36.8zM381.7 603.5h-105.5v-28.2h37.8v-138h-41.6v-23.8l50.8-6.2h21.1v168h37.5v28.2zM457.2 607.4c-40.4 0-69-29.1-69-70.5 0-42.5 24.4-85.6 71.7-128.1l1.8-1.5h43.7l-12.8 10.4c-16.9 14-38.6 34.2-54.1 58 5.9-2.1 13.1-3.6 21.4-3.6 37.8 0 66 28.8 66 67.5 0 38-30 67.8-68.7 67.8zM566.6 599.6c-10.4 0-18.1-7.1-18.1-17.8 0-10.1 7.7-17.8 18.1-17.8s18.1 7.7 18.1 17.8c0.1 10.7-7.7 17.8-18.1 17.8zM566.6 491.1c-10.4 0-18.1-7.4-18.1-17.8s7.7-18.1 18.1-18.1c10.4 0 18.1 7.7 18.1 18.1s-7.7 17.8-18.1 17.8zM674.8 602l-1.8 1.5h-43.4l12.8-10.4c16.6-13.4 38.4-33.6 53.8-57.7-6.5 2.4-13.7 3.6-21.4 3.6-38.1 0-66-28.5-66-67.8 0-38.6 29.7-67.8 69-67.8 40.4 0 68.7 29.1 68.7 70.5 0 43.1-23.5 85-71.7 128.1zM677.8 432.3c-22.3 0-37.5 15.8-37.5 38.9 0 23.8 15.2 39.8 37.5 39.8s37.8-16.4 37.8-39.8c0-23.2-15.2-38.9-37.8-38.9zM457.2 500c-22.6 0-37.8 15.8-37.8 39.5 0 23.2 15.2 38.9 37.8 38.9 22.3 0 37.5-15.8 37.5-38.9 0-23.7-15.2-39.5-37.5-39.5zM457.2 500c-22.6 0-37.8 15.8-37.8 39.5 0 23.2 15.2 38.9 37.8 38.9 22.3 0 37.5-15.8 37.5-38.9 0-23.7-15.2-39.5-37.5-39.5zM677.8 432.3c-22.3 0-37.5 15.8-37.5 38.9 0 23.8 15.2 39.8 37.5 39.8s37.8-16.4 37.8-39.8c0-23.2-15.2-38.9-37.8-38.9zM677.8 432.3c-22.3 0-37.5 15.8-37.5 38.9 0 23.8 15.2 39.8 37.5 39.8s37.8-16.4 37.8-39.8c0-23.2-15.2-38.9-37.8-38.9zM457.2 500c-22.6 0-37.8 15.8-37.8 39.5 0 23.2 15.2 38.9 37.8 38.9 22.3 0 37.5-15.8 37.5-38.9 0-23.7-15.2-39.5-37.5-39.5zM457.2 500c-22.6 0-37.8 15.8-37.8 39.5 0 23.2 15.2 38.9 37.8 38.9 22.3 0 37.5-15.8 37.5-38.9 0-23.7-15.2-39.5-37.5-39.5zM677.8 432.3c-22.3 0-37.5 15.8-37.5 38.9 0 23.8 15.2 39.8 37.5 39.8s37.8-16.4 37.8-39.8c0-23.2-15.2-38.9-37.8-38.9zM677.8 432.3c-22.3 0-37.5 15.8-37.5 38.9 0 23.8 15.2 39.8 37.5 39.8s37.8-16.4 37.8-39.8c0-23.2-15.2-38.9-37.8-38.9zM457.2 500c-22.6 0-37.8 15.8-37.8 39.5 0 23.2 15.2 38.9 37.8 38.9 22.3 0 37.5-15.8 37.5-38.9 0-23.7-15.2-39.5-37.5-39.5zM457.2 500c-22.6 0-37.8 15.8-37.8 39.5 0 23.2 15.2 38.9 37.8 38.9 22.3 0 37.5-15.8 37.5-38.9 0-23.7-15.2-39.5-37.5-39.5zM457.2 500c-22.6 0-37.8 15.8-37.8 39.5 0 23.2 15.2 38.9 37.8 38.9 22.3 0 37.5-15.8 37.5-38.9 0-23.7-15.2-39.5-37.5-39.5z"></path>
</svg>
