<!-- Generated by IcoMoon.io -->
<svg version="1.1" xmlns="http://www.w3.org/2000/svg" width="1024" height="1024" viewBox="0 0 1024 1024">
<title></title>
<g id="icomoon-ignore">
</g>
<path d="M799.2 226.3h-60v109c0 41.4-33.8 75.9-75.2 75.9-42.8 0-75.9-34.5-75.9-75.9v-109h-153.2v109c0 41.4-34.5 75.9-75.9 75.9-42.1 0-75.2-34.5-75.2-75.9v-109h-61.4c-34.5 0-62.8 28.3-62.8 63.5v564.4c0 34.5 28.3 62.8 62.8 62.8h576.8c34.5 0 62.8-28.3 62.8-62.8v-564.4c0-35.2-28.3-63.5-62.8-63.5zM447.3 614.8h-151.1v-113.9h151.1v113.9zM725.4 757.6h-151.1v-114.5h151.1v114.5z"></path>
<path d="M358.8 327.2c-9.9 0-18-8.1-18-18v-183.8c0-9.9 8.1-18 18-18s18 8.1 18 18v183.9c0 9.9-8.1 17.9-18 17.9z"></path>
<path d="M663.4 327.2c-9.9 0-18-8.1-18-18v-183.8c0-9.9 8.1-18 18-18s18 8.1 18 18v183.9c0 9.9-8.1 17.9-18 17.9z"></path>
</svg>
