<?xml version="1.0" encoding="utf-8"?>
<!-- Generator: Adobe Illustrator 22.1.0, SVG Export Plug-In . SVG Version: 6.00 Build 0)  -->
<svg version="1.1" id="Layer_1" xmlns="http://www.w3.org/2000/svg" xmlns:xlink="http://www.w3.org/1999/xlink" x="0px" y="0px"
	 viewBox="0 0 30 30" style="enable-background:new 0 0 30 30;" xml:space="preserve">
<g>
	<path d="M24.8,20.3l-8.7-15c-0.5-0.9-1.8-0.9-2.3,0l-8.7,15c-0.5,0.9,0.1,2,1.2,2h17.4C24.7,22.3,25.4,21.2,24.8,20.3z M15,20
		c-0.5,0-1-0.5-1-1s0.5-1,1-1s1,0.5,1,1S15.5,20,15,20z M16,15c0,0.5-0.5,1-1,1s-1-0.5-1-1v-5c0-0.5,0.5-1,1-1s1,0.5,1,1V15z"/>
</g>
</svg>
