<?xml version="1.0" encoding="utf-8"?>
<!-- Generator: Adobe Illustrator 22.1.0, SVG Export Plug-In . SVG Version: 6.00 Build 0)  -->
<svg version="1.1" id="Layer_1" xmlns="http://www.w3.org/2000/svg" xmlns:xlink="http://www.w3.org/1999/xlink" x="0px" y="0px"
	 viewBox="0 0 1024 1024" style="enable-background:new 0 0 1024 1024;" xml:space="preserve">
<style type="text/css">
	.st0{display:none;}
	.st1{display:inline;}
	.st2{fill:#FFFFFF;}
	.st3{display:inline;fill:#07DD96;}
	.st4{display:none;fill:#07DD96;}
	.st5{display:none;fill:#DF0000;}
	.st6{display:none;fill:#FFFFFF;}
	.st7{display:none;fill:none;stroke:#07DD96;stroke-width:23;stroke-miterlimit:10;}
	.st8{display:none;fill:#07DD96;stroke:#07DD96;stroke-width:23;stroke-miterlimit:10;}
	.st9{display:none;fill:none;stroke:#07DD96;stroke-width:21.788;stroke-miterlimit:10;}
</style>
<title></title>
<g id="icomoon-ignore">
</g>
<g class="st0">
	<g class="st1">
		<path class="st2" d="M861.9,562.2c0,85-65.5,155.2-148.6,161.9v1H309.8v-1.9l-1.9,1.9h-16.6c-73.1,0-132-59.3-132-132
			c0-73.1,58.9-132,132-132c0-89.7,72.6-162.3,162.3-162.3c77.9,0,142.4,54.6,158.5,127.2c25.2-16.6,55.1-26.1,87.3-26.1
			C789.2,399.9,861.9,473,861.9,562.2z"/>
	</g>
</g>
<g class="st0">
	<path class="st3" d="M692.5,308.6H534.7L312.1,531.2c-5.3,5.3-8.3,12.1-8.3,19.7c0,7.6,3,14.4,8.3,19.7L458.3,717
		c5.3,5,12.4,8.1,19.7,8.1c7.6,0,14.4-3,19.7-8.1l222.6-222.9V336.3C720.3,320.9,707.9,308.6,692.5,308.6z M660.3,429.6
		c-16.9,16.9-44.1,16.9-61.1,0c-16.9-16.9-16.9-44.1,0-61.1c16.9-16.9,44.1-16.9,61.1,0C677.2,385.5,677.2,412.7,660.3,429.6z"/>
</g>
<path class="st4" d="M-1517.9,1469.4c-23.3,0-38.9,16.2-38.9,40.7c0,23.9,15.6,40.1,38.9,40.1c23,0,38.6-16.2,38.6-40.1
	C-1479.3,1485.6-1494.9,1469.4-1517.9,1469.4z M-1517.9,1469.4c-23.3,0-38.9,16.2-38.9,40.7c0,23.9,15.6,40.1,38.9,40.1
	c23,0,38.6-16.2,38.6-40.1C-1479.3,1485.6-1494.9,1469.4-1517.9,1469.4z M-1517.9,1469.4c-23.3,0-38.9,16.2-38.9,40.7
	c0,23.9,15.6,40.1,38.9,40.1c23,0,38.6-16.2,38.6-40.1C-1479.3,1485.6-1494.9,1469.4-1517.9,1469.4z M-1290.6,1399.6
	c-23,0-38.6,16.2-38.6,40.1c0,24.5,15.6,41,38.6,41s38.9-16.8,38.9-41C-1251.7,1415.8-1267.4,1399.6-1290.6,1399.6z M-1290.6,1399.6
	c-23,0-38.6,16.2-38.6,40.1c0,24.5,15.6,41,38.6,41s38.9-16.8,38.9-41C-1251.7,1415.8-1267.4,1399.6-1290.6,1399.6z M-1517.9,1469.4
	c-23.3,0-38.9,16.2-38.9,40.7c0,23.9,15.6,40.1,38.9,40.1c23,0,38.6-16.2,38.6-40.1C-1479.3,1485.6-1494.9,1469.4-1517.9,1469.4z
	 M-1517.9,1469.4c-23.3,0-38.9,16.2-38.9,40.7c0,23.9,15.6,40.1,38.9,40.1c23,0,38.6-16.2,38.6-40.1
	C-1479.3,1485.6-1494.9,1469.4-1517.9,1469.4z M-1290.6,1399.6c-23,0-38.6,16.2-38.6,40.1c0,24.5,15.6,41,38.6,41s38.9-16.8,38.9-41
	C-1251.7,1415.8-1267.4,1399.6-1290.6,1399.6z M-1290.6,1399.6c-23,0-38.6,16.2-38.6,40.1c0,24.5,15.6,41,38.6,41s38.9-16.8,38.9-41
	C-1251.7,1415.8-1267.4,1399.6-1290.6,1399.6z M-1517.9,1469.4c-23.3,0-38.9,16.2-38.9,40.7c0,23.9,15.6,40.1,38.9,40.1
	c23,0,38.6-16.2,38.6-40.1C-1479.3,1485.6-1494.9,1469.4-1517.9,1469.4z M-1517.9,1469.4c-23.3,0-38.9,16.2-38.9,40.7
	c0,23.9,15.6,40.1,38.9,40.1c23,0,38.6-16.2,38.6-40.1C-1479.3,1485.6-1494.9,1469.4-1517.9,1469.4z M-1290.6,1399.6
	c-23,0-38.6,16.2-38.6,40.1c0,24.5,15.6,41,38.6,41s38.9-16.8,38.9-41C-1251.7,1415.8-1267.4,1399.6-1290.6,1399.6z M-1290.6,1399.6
	c-23,0-38.6,16.2-38.6,40.1c0,24.5,15.6,41,38.6,41s38.9-16.8,38.9-41C-1251.7,1415.8-1267.4,1399.6-1290.6,1399.6z M-1517.9,1469.4
	c-23.3,0-38.9,16.2-38.9,40.7c0,23.9,15.6,40.1,38.9,40.1c23,0,38.6-16.2,38.6-40.1C-1479.3,1485.6-1494.9,1469.4-1517.9,1469.4z
	 M-1176.4,1272.2h-577.2c-21.1,0-38,17.1-38,38v353.1c0,21.1,16.8,38,38,38h577.2c20.8,0,38-16.8,38-38v-353.1
	C-1138.4,1289.4-1155.6,1272.2-1176.4,1272.2z M-1595.6,1576h-108.7v-29.1h38.9v-142.1h-42.9v-24.5l52.4-6.4h21.7v173h38.6V1576z
	 M-1517.9,1580c-41.6,0-71-30-71-72.6c0-43.8,25.1-88.2,73.8-132l1.8-1.5h45l-13.2,10.7c-17.5,14.4-39.8,35.2-55.7,59.7
	c6.1-2.1,13.5-3.7,22-3.7c38.9,0,68,29.7,68,69.5C-1447.1,1549.3-1478,1580-1517.9,1580z M-1405.2,1572c-10.7,0-18.7-7.3-18.7-18.4
	c0-10.4,8-18.4,18.7-18.4s18.7,8,18.7,18.4C-1386.5,1564.6-1394.4,1572-1405.2,1572z M-1405.2,1460.2c-10.7,0-18.7-7.7-18.7-18.4
	s8-18.7,18.7-18.7s18.7,8,18.7,18.7S-1394.4,1460.2-1405.2,1460.2z M-1293.7,1574.4l-1.8,1.5h-44.7l13.2-10.7
	c17.1-13.8,39.5-34.6,55.4-59.4c-6.7,2.4-14.1,3.7-22,3.7c-39.2,0-68-29.4-68-69.8c0-39.8,30.6-69.8,71-69.8
	c41.6,0,70.7,30,70.7,72.6C-1219.9,1486.9-1244.1,1530-1293.7,1574.4z M-1290.6,1399.6c-23,0-38.6,16.2-38.6,40.1
	c0,24.5,15.6,41,38.6,41s38.9-16.8,38.9-41C-1251.7,1415.8-1267.4,1399.6-1290.6,1399.6z M-1517.9,1469.4
	c-23.3,0-38.9,16.2-38.9,40.7c0,23.9,15.6,40.1,38.9,40.1c23,0,38.6-16.2,38.6-40.1C-1479.3,1485.6-1494.9,1469.4-1517.9,1469.4z
	 M-1517.9,1469.4c-23.3,0-38.9,16.2-38.9,40.7c0,23.9,15.6,40.1,38.9,40.1c23,0,38.6-16.2,38.6-40.1
	C-1479.3,1485.6-1494.9,1469.4-1517.9,1469.4z M-1290.6,1399.6c-23,0-38.6,16.2-38.6,40.1c0,24.5,15.6,41,38.6,41s38.9-16.8,38.9-41
	C-1251.7,1415.8-1267.4,1399.6-1290.6,1399.6z M-1290.6,1399.6c-23,0-38.6,16.2-38.6,40.1c0,24.5,15.6,41,38.6,41s38.9-16.8,38.9-41
	C-1251.7,1415.8-1267.4,1399.6-1290.6,1399.6z M-1517.9,1469.4c-23.3,0-38.9,16.2-38.9,40.7c0,23.9,15.6,40.1,38.9,40.1
	c23,0,38.6-16.2,38.6-40.1C-1479.3,1485.6-1494.9,1469.4-1517.9,1469.4z M-1517.9,1469.4c-23.3,0-38.9,16.2-38.9,40.7
	c0,23.9,15.6,40.1,38.9,40.1c23,0,38.6-16.2,38.6-40.1C-1479.3,1485.6-1494.9,1469.4-1517.9,1469.4z M-1290.6,1399.6
	c-23,0-38.6,16.2-38.6,40.1c0,24.5,15.6,41,38.6,41s38.9-16.8,38.9-41C-1251.7,1415.8-1267.4,1399.6-1290.6,1399.6z M-1290.6,1399.6
	c-23,0-38.6,16.2-38.6,40.1c0,24.5,15.6,41,38.6,41s38.9-16.8,38.9-41C-1251.7,1415.8-1267.4,1399.6-1290.6,1399.6z M-1517.9,1469.4
	c-23.3,0-38.9,16.2-38.9,40.7c0,23.9,15.6,40.1,38.9,40.1c23,0,38.6-16.2,38.6-40.1C-1479.3,1485.6-1494.9,1469.4-1517.9,1469.4z
	 M-1517.9,1469.4c-23.3,0-38.9,16.2-38.9,40.7c0,23.9,15.6,40.1,38.9,40.1c23,0,38.6-16.2,38.6-40.1
	C-1479.3,1485.6-1494.9,1469.4-1517.9,1469.4z M-1517.9,1469.4c-23.3,0-38.9,16.2-38.9,40.7c0,23.9,15.6,40.1,38.9,40.1
	c23,0,38.6-16.2,38.6-40.1C-1479.3,1485.6-1494.9,1469.4-1517.9,1469.4z"/>
<g class="st0">
	<path class="st3" d="M814.6,484.3c-2.8-3.6-6.9-5.6-11.4-5.6h-61.1V372.4c0-7.5-6.1-13.9-13.9-13.9H481.9l-25.3-43.3
		c-2.5-4.2-6.9-6.7-11.9-6.7H267.5c-7.5,0-13.9,6.1-13.9,13.9v388.8c0,1.7,0.3,3.3,0.8,4.7c0.6,1.1,1.1,2.2,1.7,3.1
		c0.3,0,0.3,0.3,0.3,0.3c0.6,0.8,1.4,1.7,2.2,2.5c0.8,0.6,1.7,1.4,2.5,1.7c1.9,1.1,4.2,1.7,6.4,1.7h460.7c1.1,0,1.9,0,3.1-0.3
		c0.8-0.3,1.7-0.6,2.5-0.8c3.3-1.4,5.8-3.9,7.2-7.2c0.3-0.3,0.6-0.6,0.6-1.1l74.7-218.5C817.9,492.7,817.1,488.2,814.6,484.3z
		 M556.9,478.8l-14.2-25.5c-2.5-4.2-6.9-6.9-11.9-6.9H353.6c-5.8,0-11.1,3.6-13.1,9.4l-59.1,172.4V336.3h155.2l25.3,43
		c2.5,4.4,7.2,6.9,11.9,6.9h240.5v92.5H556.9V478.8z"/>
</g>
<path class="st5" d="M1034.6,1689c-24.3,0-47-12.7-59.9-34.7l-95.4-163.2v127.1c0,38.7-31.5,70.2-70.2,70.2H683.9
	c-106.5,0-193.2-86.7-193.2-193.2S577.4,1302,683.9,1302h61.2v104.2h-61.2c-49.1,0-89,39.9-89,89s39.9,89,89,89h91.2v-212.9
	c0-32.8,21.3-60.7,53-69.3c31.7-8.6,64.1,4.7,80.7,33.1l91.9,157.3v-121.1c0-32.8,21.3-60.7,53-69.3c31.7-8.6,64.1,4.7,80.7,33.1
	l91.9,157.3v-194.9h104.2V1619c0,32-20.7,59.1-51.6,67.5s-62.5-4.6-78.6-32.2l-95.4-163.2V1619c0,32-20.7,59.1-51.6,67.5
	C1047,1688.2,1040.7,1689,1034.6,1689z"/>
<path class="st6" d="M1260.5,1644.3c-8.8,0-17-4.6-21.6-12.5L1083,1365.1c-3.5-5.9-9.4-6.8-13.7-5.6c-4.4,1.2-9,4.9-9,11.8V1619
	c0,11.6-7.5,21.3-18.6,24.4c-11.1,3-22.6-1.7-28.4-11.6l-155.8-266.6c-3.5-5.9-9.4-6.8-13.7-5.6c-4.4,1.2-9,4.9-9,11.8v246.9
	c0,14.1-11.5,25.5-25.5,25.5H683.9c-81.9,0-148.5-66.6-148.5-148.5s66.6-148.5,148.5-148.5h61.2v14.9h-61.2
	c-73.7,0-133.7,60-133.7,133.7s60,133.7,133.7,133.7h125.2c5.9,0,10.6-4.8,10.6-10.6v-246.9c0-12.4,8-22.9,20-26.2
	c12-3.2,24.2,1.8,30.5,12.5l155.8,266.6c2.9,5,8,5.8,11.7,4.8s7.7-4.2,7.7-10v-247.7c0-12.4,8-22.9,20-26.2
	c12-3.2,24.2,1.8,30.5,12.5l155.8,266.6c2.9,5,8,5.8,11.7,4.8s7.7-4.2,7.7-10v-321.6h14.9V1619c0,11.6-7.5,21.3-18.6,24.4
	C1265,1644,1262.7,1644.3,1260.5,1644.3z"/>
<path class="st7" d="M1595.6,308.6c-25.5,0-46.2,20.7-46.2,46.2v293.7h-318.9V354.8c0-25.5,20.7-46.2,46.2-46.2L1595.6,308.6
	L1595.6,308.6z"/>
<path class="st7" d="M1641.8,354.8v30.4h-92.4v-30.4c0-25.5,20.7-46.2,46.2-46.2C1621.1,308.6,1641.8,329.3,1641.8,354.8z"/>
<path class="st8" d="M1549.3,648.5v30.4c0,25.5-20.7,46.2-46.2,46.2h-272.7c-25.5,0-46.2-20.7-46.2-46.2v-30.4H1549.3z"/>
<path class="st4" d="M3116,551.6V582c0,25.5-20.7,46.2-46.2,46.2H2797c-25.5,0-46.2-20.7-46.2-46.2v-30.4H3116z"/>
<path class="st4" d="M3162.2,288.3v-30.4c0-25.5-20.7-46.2-46.2-46.2h-272.7c-25.5,0-46.2,20.7-46.2,46.2v30.4H3162.2z"/>
<rect x="2797" y="288.3" class="st4" width="318.9" height="263.3"/>
<line class="st9" x1="1296.5" y1="385.2" x2="1483.2" y2="385.2"/>
<line class="st9" x1="1296.5" y1="448.9" x2="1483.2" y2="448.9"/>
<line class="st9" x1="1296.5" y1="512.6" x2="1483.2" y2="512.6"/>
<line class="st9" x1="1296.5" y1="576.3" x2="1483.2" y2="576.3"/>
<path d="M189.2,308.6V725h645.6V308.6H189.2z M437.2,626.5h-40.5V430.6L336.8,451v-34.2l95.1-35h5.2V626.5z M679.7,606.9
	c-14.6,15.4-33.7,23-57.4,23c-24.3,0-44.1-9-59.2-27c-15.1-18-22.7-41.5-22.7-70.7v-13.9c0-42.8,10.4-76.3,31.2-100.5
	s50.8-36.4,89.9-36.4h4.2v33.7h-5c-22.8,0.3-41,6.6-54.6,18.8c-13.6,12.2-21.7,29.4-24.3,51.8c13.1-13.7,29.8-20.6,50.1-20.6
	c21.5,0,38.5,7.6,51,22.8c12.5,15.2,18.7,34.8,18.7,58.8C701.6,571.4,694.3,591.5,679.7,606.9z M622,497.9c-8.9,0-17.1,2.5-24.5,7.5
	c-7.4,5-12.9,11.7-16.3,20.1v12.4c0,18.1,3.8,32.5,11.4,43.1c7.6,10.7,17.4,16,29.5,16s21.6-4.5,28.6-13.6c7-9,10.6-20.9,10.6-35.7
	s-3.6-26.8-10.7-36C643.3,502.5,633.8,497.9,622,497.9z"/>
</svg>
