<!-- Generated by IcoMoon.io -->
<svg version="1.1" xmlns="http://www.w3.org/2000/svg" width="1024" height="1024" viewBox="0 0 1024 1024">
<title></title>
<g id="icomoon-ignore">
</g>
<path d="M814.6 484.3c-2.8-3.6-6.9-5.6-11.4-5.6h-61.1v-106.3c0-7.5-6.1-13.9-13.9-13.9h-246.3l-25.3-43.3c-2.5-4.2-6.9-6.7-11.9-6.7h-177.2c-7.5 0-13.9 6.1-13.9 13.9v388.8c0 1.7 0.3 3.3 0.8 4.7 0.6 1.1 1.1 2.2 1.7 3.1 0.3 0 0.3 0.3 0.3 0.3 0.6 0.8 1.4 1.7 2.2 2.5 0.8 0.6 1.7 1.4 2.5 1.7 1.9 1.1 4.2 1.7 6.4 1.7h460.7c1.1 0 1.9 0 3.1-0.3 0.8-0.3 1.7-0.6 2.5-0.8 3.3-1.4 5.8-3.9 7.2-7.2 0.3-0.3 0.6-0.6 0.6-1.1l74.7-218.5c1.6-4.6 0.8-9.1-1.7-13zM556.9 478.8l-14.2-25.5c-2.5-4.2-6.9-6.9-11.9-6.9h-177.2c-5.8 0-11.1 3.6-13.1 9.4l-59.1 172.4v-291.9h155.2l25.3 43c2.5 4.4 7.2 6.9 11.9 6.9h240.5v92.5h-157.4z"></path>
</svg>
