<!-- Generated by IcoMoon.io -->
<svg version="1.1" xmlns="http://www.w3.org/2000/svg" width="1024" height="1024" viewBox="0 0 1024 1024">
<title></title>
<g id="icomoon-ignore">
</g>
<path d="M692.5 308.6h-157.8l-222.6 222.6c-5.3 5.3-8.3 12.1-8.3 19.7s3 14.4 8.3 19.7l146.2 146.4c5.3 5 12.4 8.1 19.7 8.1 7.6 0 14.4-3 19.7-8.1l222.6-222.9v-157.8c0-15.4-12.4-27.7-27.8-27.7zM660.3 429.6c-16.9 16.9-44.1 16.9-61.1 0-16.9-16.9-16.9-44.1 0-61.1 16.9-16.9 44.1-16.9 61.1 0 16.9 17 16.9 44.2 0 61.1z"></path>
</svg>
