<!-- Generated by IcoMoon.io -->
<svg version="1.1" xmlns="http://www.w3.org/2000/svg" width="1024" height="1024" viewBox="0 0 1024 1024">
<title></title>
<g id="icomoon-ignore">
</g>
<path d="M619.7 585.9c23.7-31 37.5-69.5 37.5-111.4 0-102-82.3-184.8-184.8-184.8-102 0-184.3 82.8-184.3 184.8s82.3 184.8 184.3 184.8c41.9 0 80.8-13.8 111.9-37.9l110.9 110.9 35.5-35.5-111-110.9zM472.3 608.5c-73.9 0-134-60.1-134-134 0-74.4 60.1-134.5 134-134.5 74.4 0 134.5 60.1 134.5 134.5 0 73.9-60.1 134-134.5 134z"></path>
</svg>
