<!-- Generated by IcoMoon.io -->
<svg version="1.1" xmlns="http://www.w3.org/2000/svg" width="1024" height="1024" viewBox="0 0 1024 1024">
<title></title>
<g id="icomoon-ignore">
</g>
<path d="M405.333 742.4v-460.8c0-21.333 21.333-34.133 38.4-25.6l490.667 230.4c21.333 8.533 21.333 38.4 0 51.2l-490.667 230.4c-17.067 8.533-38.4-4.267-38.4-25.6z"></path>
<path d="M64 780.8h12.8c12.8 0 21.333-8.533 21.333-21.333v-494.933c0-12.8-8.533-21.333-21.333-21.333h-12.8c-12.8 0-21.333 8.533-21.333 21.333v494.933c0 12.8 8.533 21.333 21.333 21.333z"></path>
<path d="M247.467 780.8h8.533c12.8 0 21.333-8.533 21.333-21.333v-494.933c0-12.8-8.533-21.333-21.333-21.333h-8.533c-12.8 0-21.333 8.533-21.333 21.333v494.933c-4.267 12.8 8.533 21.333 21.333 21.333z"></path>
</svg>
