<?xml version="1.0" encoding="utf-8"?>
<!-- Generator: Adobe Illustrator 22.1.0, SVG Export Plug-In . SVG Version: 6.00 Build 0)  -->
<svg version="1.1" id="Layer_1" xmlns="http://www.w3.org/2000/svg" xmlns:xlink="http://www.w3.org/1999/xlink" x="0px" y="0px"
	 viewBox="0 0 1024 1024" style="enable-background:new 0 0 1024 1024;" xml:space="preserve">
<style type="text/css">
	.st0{display:none;}
	.st1{display:inline;}
	.st2{fill:#FFFFFF;}
	.st3{display:inline;fill:#07DD96;}
	.st4{display:none;fill:#07DD96;}
	.st5{display:none;fill:#DF0000;}
	.st6{display:none;fill:#FFFFFF;}
	.st7{fill:#13FD54;}
	.st8{display:none;fill:url(#SVGID_1_);}
	.st9{display:none;fill:url(#SVGID_2_);}
	.st10{display:none;fill:url(#SVGID_3_);}
</style>
<title></title>
<g id="icomoon-ignore">
</g>
<g class="st0">
	<g class="st1">
		<path class="st2" d="M861.9,562.2c0,85-65.5,155.2-148.6,161.9v1H309.8v-1.9l-1.9,1.9h-16.6c-73.1,0-132-59.3-132-132
			c0-73.1,58.9-132,132-132c0-89.7,72.6-162.3,162.3-162.3c77.9,0,142.4,54.6,158.5,127.2c25.2-16.6,55.1-26.1,87.3-26.1
			C789.2,399.9,861.9,473,861.9,562.2z"/>
	</g>
</g>
<g class="st0">
	<path class="st3" d="M692.5,308.6H534.7L312.1,531.2c-5.3,5.3-8.3,12.1-8.3,19.7c0,7.6,3,14.4,8.3,19.7L458.3,717
		c5.3,5,12.4,8.1,19.7,8.1c7.6,0,14.4-3,19.7-8.1l222.6-222.9V336.3C720.3,320.9,707.9,308.6,692.5,308.6z M660.3,429.6
		c-16.9,16.9-44.1,16.9-61.1,0c-16.9-16.9-16.9-44.1,0-61.1c16.9-16.9,44.1-16.9,61.1,0C677.2,385.5,677.2,412.7,660.3,429.6z"/>
</g>
<path class="st4" d="M-1517.9,1469.4c-23.3,0-38.9,16.2-38.9,40.7c0,23.9,15.6,40.1,38.9,40.1c23,0,38.6-16.2,38.6-40.1
	C-1479.3,1485.6-1494.9,1469.4-1517.9,1469.4z M-1517.9,1469.4c-23.3,0-38.9,16.2-38.9,40.7c0,23.9,15.6,40.1,38.9,40.1
	c23,0,38.6-16.2,38.6-40.1C-1479.3,1485.6-1494.9,1469.4-1517.9,1469.4z M-1517.9,1469.4c-23.3,0-38.9,16.2-38.9,40.7
	c0,23.9,15.6,40.1,38.9,40.1c23,0,38.6-16.2,38.6-40.1C-1479.3,1485.6-1494.9,1469.4-1517.9,1469.4z M-1290.6,1399.6
	c-23,0-38.6,16.2-38.6,40.1c0,24.5,15.6,41,38.6,41s38.9-16.8,38.9-41C-1251.7,1415.8-1267.4,1399.6-1290.6,1399.6z M-1290.6,1399.6
	c-23,0-38.6,16.2-38.6,40.1c0,24.5,15.6,41,38.6,41s38.9-16.8,38.9-41C-1251.7,1415.8-1267.4,1399.6-1290.6,1399.6z M-1517.9,1469.4
	c-23.3,0-38.9,16.2-38.9,40.7c0,23.9,15.6,40.1,38.9,40.1c23,0,38.6-16.2,38.6-40.1C-1479.3,1485.6-1494.9,1469.4-1517.9,1469.4z
	 M-1517.9,1469.4c-23.3,0-38.9,16.2-38.9,40.7c0,23.9,15.6,40.1,38.9,40.1c23,0,38.6-16.2,38.6-40.1
	C-1479.3,1485.6-1494.9,1469.4-1517.9,1469.4z M-1290.6,1399.6c-23,0-38.6,16.2-38.6,40.1c0,24.5,15.6,41,38.6,41s38.9-16.8,38.9-41
	C-1251.7,1415.8-1267.4,1399.6-1290.6,1399.6z M-1290.6,1399.6c-23,0-38.6,16.2-38.6,40.1c0,24.5,15.6,41,38.6,41s38.9-16.8,38.9-41
	C-1251.7,1415.8-1267.4,1399.6-1290.6,1399.6z M-1517.9,1469.4c-23.3,0-38.9,16.2-38.9,40.7c0,23.9,15.6,40.1,38.9,40.1
	c23,0,38.6-16.2,38.6-40.1C-1479.3,1485.6-1494.9,1469.4-1517.9,1469.4z M-1517.9,1469.4c-23.3,0-38.9,16.2-38.9,40.7
	c0,23.9,15.6,40.1,38.9,40.1c23,0,38.6-16.2,38.6-40.1C-1479.3,1485.6-1494.9,1469.4-1517.9,1469.4z M-1290.6,1399.6
	c-23,0-38.6,16.2-38.6,40.1c0,24.5,15.6,41,38.6,41s38.9-16.8,38.9-41C-1251.7,1415.8-1267.4,1399.6-1290.6,1399.6z M-1290.6,1399.6
	c-23,0-38.6,16.2-38.6,40.1c0,24.5,15.6,41,38.6,41s38.9-16.8,38.9-41C-1251.7,1415.8-1267.4,1399.6-1290.6,1399.6z M-1517.9,1469.4
	c-23.3,0-38.9,16.2-38.9,40.7c0,23.9,15.6,40.1,38.9,40.1c23,0,38.6-16.2,38.6-40.1C-1479.3,1485.6-1494.9,1469.4-1517.9,1469.4z
	 M-1176.4,1272.2h-577.2c-21.1,0-38,17.1-38,38v353.1c0,21.1,16.8,38,38,38h577.2c20.8,0,38-16.8,38-38v-353.1
	C-1138.4,1289.4-1155.6,1272.2-1176.4,1272.2z M-1595.6,1576h-108.7v-29.1h38.9v-142.1h-42.9v-24.5l52.4-6.4h21.7v173h38.6V1576z
	 M-1517.9,1580c-41.6,0-71-30-71-72.6c0-43.8,25.1-88.2,73.8-132l1.8-1.5h45l-13.2,10.7c-17.5,14.4-39.8,35.2-55.7,59.7
	c6.1-2.1,13.5-3.7,22-3.7c38.9,0,68,29.7,68,69.5C-1447.1,1549.3-1478,1580-1517.9,1580z M-1405.2,1572c-10.7,0-18.7-7.3-18.7-18.4
	c0-10.4,8-18.4,18.7-18.4s18.7,8,18.7,18.4C-1386.5,1564.6-1394.4,1572-1405.2,1572z M-1405.2,1460.2c-10.7,0-18.7-7.7-18.7-18.4
	s8-18.7,18.7-18.7s18.7,8,18.7,18.7S-1394.4,1460.2-1405.2,1460.2z M-1293.7,1574.4l-1.8,1.5h-44.7l13.2-10.7
	c17.1-13.8,39.5-34.6,55.4-59.4c-6.7,2.4-14.1,3.7-22,3.7c-39.2,0-68-29.4-68-69.8c0-39.8,30.6-69.8,71-69.8
	c41.6,0,70.7,30,70.7,72.6C-1219.9,1486.9-1244.1,1530-1293.7,1574.4z M-1290.6,1399.6c-23,0-38.6,16.2-38.6,40.1
	c0,24.5,15.6,41,38.6,41s38.9-16.8,38.9-41C-1251.7,1415.8-1267.4,1399.6-1290.6,1399.6z M-1517.9,1469.4
	c-23.3,0-38.9,16.2-38.9,40.7c0,23.9,15.6,40.1,38.9,40.1c23,0,38.6-16.2,38.6-40.1C-1479.3,1485.6-1494.9,1469.4-1517.9,1469.4z
	 M-1517.9,1469.4c-23.3,0-38.9,16.2-38.9,40.7c0,23.9,15.6,40.1,38.9,40.1c23,0,38.6-16.2,38.6-40.1
	C-1479.3,1485.6-1494.9,1469.4-1517.9,1469.4z M-1290.6,1399.6c-23,0-38.6,16.2-38.6,40.1c0,24.5,15.6,41,38.6,41s38.9-16.8,38.9-41
	C-1251.7,1415.8-1267.4,1399.6-1290.6,1399.6z M-1290.6,1399.6c-23,0-38.6,16.2-38.6,40.1c0,24.5,15.6,41,38.6,41s38.9-16.8,38.9-41
	C-1251.7,1415.8-1267.4,1399.6-1290.6,1399.6z M-1517.9,1469.4c-23.3,0-38.9,16.2-38.9,40.7c0,23.9,15.6,40.1,38.9,40.1
	c23,0,38.6-16.2,38.6-40.1C-1479.3,1485.6-1494.9,1469.4-1517.9,1469.4z M-1517.9,1469.4c-23.3,0-38.9,16.2-38.9,40.7
	c0,23.9,15.6,40.1,38.9,40.1c23,0,38.6-16.2,38.6-40.1C-1479.3,1485.6-1494.9,1469.4-1517.9,1469.4z M-1290.6,1399.6
	c-23,0-38.6,16.2-38.6,40.1c0,24.5,15.6,41,38.6,41s38.9-16.8,38.9-41C-1251.7,1415.8-1267.4,1399.6-1290.6,1399.6z M-1290.6,1399.6
	c-23,0-38.6,16.2-38.6,40.1c0,24.5,15.6,41,38.6,41s38.9-16.8,38.9-41C-1251.7,1415.8-1267.4,1399.6-1290.6,1399.6z M-1517.9,1469.4
	c-23.3,0-38.9,16.2-38.9,40.7c0,23.9,15.6,40.1,38.9,40.1c23,0,38.6-16.2,38.6-40.1C-1479.3,1485.6-1494.9,1469.4-1517.9,1469.4z
	 M-1517.9,1469.4c-23.3,0-38.9,16.2-38.9,40.7c0,23.9,15.6,40.1,38.9,40.1c23,0,38.6-16.2,38.6-40.1
	C-1479.3,1485.6-1494.9,1469.4-1517.9,1469.4z M-1517.9,1469.4c-23.3,0-38.9,16.2-38.9,40.7c0,23.9,15.6,40.1,38.9,40.1
	c23,0,38.6-16.2,38.6-40.1C-1479.3,1485.6-1494.9,1469.4-1517.9,1469.4z"/>
<path class="st5" d="M1034.6,1689c-24.3,0-47-12.7-59.9-34.7l-95.4-163.2v127.1c0,38.7-31.5,70.2-70.2,70.2H683.9
	c-106.5,0-193.2-86.7-193.2-193.2S577.4,1302,683.9,1302h61.2v104.2h-61.2c-49.1,0-89,39.9-89,89s39.9,89,89,89h91.2v-212.9
	c0-32.8,21.3-60.7,53-69.3c31.7-8.6,64.1,4.7,80.7,33.1l91.9,157.3v-121.1c0-32.8,21.3-60.7,53-69.3c31.7-8.6,64.1,4.7,80.7,33.1
	l91.9,157.3v-194.9h104.2V1619c0,32-20.7,59.1-51.6,67.5s-62.5-4.6-78.6-32.2l-95.4-163.2V1619c0,32-20.7,59.1-51.6,67.5
	C1047,1688.2,1040.7,1689,1034.6,1689z"/>
<path class="st6" d="M1260.5,1644.3c-8.8,0-17-4.6-21.6-12.5L1083,1365.1c-3.5-5.9-9.4-6.8-13.7-5.6c-4.4,1.2-9,4.9-9,11.8V1619
	c0,11.6-7.5,21.3-18.6,24.4c-11.1,3-22.6-1.7-28.4-11.6l-155.8-266.6c-3.5-5.9-9.4-6.8-13.7-5.6c-4.4,1.2-9,4.9-9,11.8v246.9
	c0,14.1-11.5,25.5-25.5,25.5H683.9c-81.9,0-148.5-66.6-148.5-148.5s66.6-148.5,148.5-148.5h61.2v14.9h-61.2
	c-73.7,0-133.7,60-133.7,133.7s60,133.7,133.7,133.7h125.2c5.9,0,10.6-4.8,10.6-10.6v-246.9c0-12.4,8-22.9,20-26.2
	c12-3.2,24.2,1.8,30.5,12.5l155.8,266.6c2.9,5,8,5.8,11.7,4.8s7.7-4.2,7.7-10v-247.7c0-12.4,8-22.9,20-26.2
	c12-3.2,24.2,1.8,30.5,12.5l155.8,266.6c2.9,5,8,5.8,11.7,4.8s7.7-4.2,7.7-10v-321.6h14.9V1619c0,11.6-7.5,21.3-18.6,24.4
	C1265,1644,1262.7,1644.3,1260.5,1644.3z"/>
<circle class="st7" cx="511" cy="516.8" r="208.3"/>
<radialGradient id="SVGID_1_" cx="-309.7804" cy="71.8264" r="165.7804" gradientUnits="userSpaceOnUse">
	<stop  offset="7.074311e-02" style="stop-color:#00FD14"/>
	<stop  offset="0.4211" style="stop-color:#13FD54"/>
	<stop  offset="0.6458" style="stop-color:#13FB55"/>
	<stop  offset="0.7437" style="stop-color:#14F456"/>
	<stop  offset="0.8169" style="stop-color:#15E759"/>
	<stop  offset="0.8778" style="stop-color:#17D55E"/>
	<stop  offset="0.9306" style="stop-color:#19BE63"/>
	<stop  offset="0.9581" style="stop-color:#1BAF67"/>
</radialGradient>
<circle class="st8" cx="-309.8" cy="71.8" r="165.8"/>
<radialGradient id="SVGID_2_" cx="-309.7804" cy="511.9468" r="165.5366" gradientUnits="userSpaceOnUse">
	<stop  offset="8.561454e-02" style="stop-color:#E80100"/>
	<stop  offset="0.2647" style="stop-color:#E80502"/>
	<stop  offset="0.4211" style="stop-color:#E70F06"/>
	<stop  offset="0.6634" style="stop-color:#E50F06"/>
	<stop  offset="0.7689" style="stop-color:#DE0F06"/>
	<stop  offset="0.8478" style="stop-color:#D10F06"/>
	<stop  offset="0.9135" style="stop-color:#BF0F06"/>
	<stop  offset="0.9703" style="stop-color:#A80F06"/>
	<stop  offset="1" style="stop-color:#990F06"/>
</radialGradient>
<circle class="st9" cx="-309.8" cy="511.9" r="165.5"/>
<radialGradient id="SVGID_3_" cx="-309.7804" cy="951.8234" r="165.5366" gradientUnits="userSpaceOnUse">
	<stop  offset="7.074311e-02" style="stop-color:#FFFD5D"/>
	<stop  offset="0.4211" style="stop-color:#FFFD1B"/>
	<stop  offset="0.6711" style="stop-color:#FFFB1A"/>
	<stop  offset="0.78" style="stop-color:#FEF416"/>
	<stop  offset="0.8614" style="stop-color:#FCE70F"/>
	<stop  offset="0.9288" style="stop-color:#FAD506"/>
	<stop  offset="0.9581" style="stop-color:#F9CB00"/>
</radialGradient>
<circle class="st10" cx="-309.8" cy="951.8" r="165.5"/>
</svg>
