<!-- Generated by IcoMoon.io -->
<svg version="1.1" xmlns="http://www.w3.org/2000/svg" width="1024" height="1024" viewBox="0 0 1024 1024">
<title></title>
<g id="icomoon-ignore">
</g>
<path d="M635.9 330.4h-261.1c-8.4 0-15.7 3.1-20.6 8.9-5 5.8-7.1 13.8-5.8 22.4l33.4 222.8c0.9 6-3.2 11.5-9.2 12.4-5.9 0.9-11.5-3.2-12.4-9.2l-33.4-222.8c-2.2-15 1.6-29.1 10.9-39.9 9.1-10.6 22.3-16.4 37.1-16.4h302.2c0.2 0 0.4 0 0.6 0 14.1 0.1 28.1 5.6 39.5 15.5 11.5 10 18.9 23.3 21.1 37.6l4.3 28.8c0.5 3.1-0.5 6.3-2.5 8.7-2.1 2.4-5.1 3.8-8.3 3.8h-74.9l35.5 237 4.3 28.8c2.2 15-1.6 29.1-10.9 39.8-9.1 10.6-22.3 16.4-37.1 16.4h-293.5c-14.3 0-28.5-5.5-40-15.5s-19-23.3-21.1-37.6l-4.3-28.8c-0.5-3.1 0.4-6.3 2.5-8.7s5.1-3.8 8.3-3.8h368.4l-35.5-237-4.3-28.8c-3.6-26.2 6.8-34.4 6.8-34.4z"></path>
<path d="M581.5 403h-176.9c-6 0-10.9-4.9-10.9-10.9s4.9-10.9 10.9-10.9h176.9c6 0 10.9 4.9 10.9 10.9s-4.9 10.9-10.9 10.9z"></path>
<path d="M590.5 463.4h-176.9c-6 0-10.9-4.9-10.9-10.9s4.9-10.9 10.9-10.9h176.9c6 0 10.9 4.9 10.9 10.9s-4.8 10.9-10.9 10.9z"></path>
<path d="M599.6 523.7h-176.9c-6 0-10.9-4.9-10.9-10.9s4.9-10.9 10.9-10.9h176.9c6 0 10.9 4.9 10.9 10.9s-4.9 10.9-10.9 10.9z"></path>
<path d="M608.6 584.1h-176.9c-6 0-10.9-4.9-10.9-10.9s4.9-10.9 10.9-10.9h176.9c6 0 10.9 4.9 10.9 10.9s-4.8 10.9-10.9 10.9z"></path>
</svg>
