<!-- Generated by IcoMoon.io -->
<svg version="1.1" xmlns="http://www.w3.org/2000/svg" width="1024" height="1024" viewBox="0 0 1024 1024">
<title></title>
<g id="icomoon-ignore">
</g>
<path d="M933.7 866.5l-239.5-238.6c46.6-61.5 69.9-135.1 69.9-207.8 0-87.6-33.5-175.2-100.6-242.3-133.3-134.2-351.4-134.2-485.6 0-133.3 133.2-133.3 351.3 0 485.5 67.1 66.2 154.7 99.7 243.2 99.7 72.7 0 146.3-23.3 206.9-69.9l239.5 239.5c9.3 9.3 21.4 14 33.5 14 11.2 0 23.3-4.7 32.6-14 17.8-17.7 17.8-47.5 0.1-66.1zM598.2 597.1c-97.9 97.9-256.3 97.9-354.1 0-97.9-97.9-97.9-256.3 0-354.1 48.5-48.5 112.8-72.7 177.1-72.7s127.7 24.2 177.1 72.7c96.8 97.8 96.8 256.3-0.1 354.1z"></path>
</svg>
