<!-- Generated by IcoMoon.io -->
<svg version="1.1" xmlns="http://www.w3.org/2000/svg" width="1024" height="1024" viewBox="0 0 1024 1024">
<title></title>
<g id="icomoon-ignore">
</g>
<path d="M708.267 460.8h-392.533c-55.467 0-98.133 46.933-98.133 98.133v251.733c0 55.467 46.933 98.133 98.133 98.133h392.533c55.467 0 98.133-46.933 98.133-98.133v-247.467c0-55.467-38.4-102.4-98.133-102.4zM537.6 712.533v93.867h-55.467v-93.867c-25.6-8.533-46.933-42.667-46.933-72.533 0-42.667 38.4-76.8 76.8-76.8s76.8 38.4 76.8 76.8c0 29.867-21.333 59.733-51.2 72.533z"></path>
<path d="M665.6 294.4v4.267h-68.267v-4.267c0-46.933-42.667-89.6-89.6-89.6s-89.6 42.667-89.6 89.6v93.867h-59.733v-93.867c0-89.6 68.267-153.6 153.6-153.6s153.6 72.533 153.6 153.6z"></path>
</svg>
