<!-- Generated by IcoMoon.io -->
<svg version="1.1" xmlns="http://www.w3.org/2000/svg" width="1024" height="1024" viewBox="0 0 1024 1024">
<title></title>
<g id="icomoon-ignore">
</g>
<path d="M512 260.267c-217.6 0-396.8 264.533-396.8 264.533s179.2 264.533 396.8 264.533 396.8-264.533 396.8-264.533-179.2-264.533-396.8-264.533zM512 682.667c-89.6 0-157.867-68.267-157.867-157.867s68.267-157.867 157.867-157.867 157.867 68.267 157.867 157.867-68.267 157.867-157.867 157.867z"></path>
<path d="M593.067 563.2c0 21.208-17.192 38.4-38.4 38.4s-38.4-17.192-38.4-38.4c0-21.208 17.192-38.4 38.4-38.4s38.4 17.192 38.4 38.4z"></path>
</svg>
