<!-- Generated by IcoMoon.io -->
<svg version="1.1" xmlns="http://www.w3.org/2000/svg" width="1024" height="1024" viewBox="0 0 1024 1024">
<title></title>
<g id="icomoon-ignore">
</g>
<path d="M729.6 486.4l-230.4 230.4c-34.133 34.133-89.6 34.133-128 0-17.067-17.067-25.6-38.4-25.6-64s8.533-46.933 25.6-64l230.4-230.4-128-128-230.4 230.4c-51.2 51.2-81.067 119.467-81.067 192s29.867 140.8 81.067 192c51.2 51.2 119.467 81.067 192 81.067s140.8-29.867 192-81.067l230.4-230.4-128-128zM362.667 384l110.933-115.2 89.6 89.6-110.933 115.2-89.6-89.6zM708.267 729.6v0l-89.6-89.6 115.2-115.2 89.6 89.6-115.2 115.2z"></path>
<path d="M652.8 456.533l192-200.533h-76.8l76.8-157.867-192 200.533h76.8z"></path>
</svg>
