<?xml version="1.0" encoding="utf-8"?>
<!-- Generator: Adobe Illustrator 22.1.0, SVG Export Plug-In . SVG Version: 6.00 Build 0)  -->
<svg version="1.1" id="Layer_1" xmlns="http://www.w3.org/2000/svg" xmlns:xlink="http://www.w3.org/1999/xlink" x="0px" y="0px"
	 viewBox="0 0 30 30" style="enable-background:new 0 0 30 30;" xml:space="preserve">
<style type="text/css">
	.st0{fill:#EA2100;}
</style>
<g>
	<path class="st0" d="M29.5,23.1l-12-20.8c-1.1-1.9-3.8-1.9-4.9,0l-12,20.8C-0.6,25,0.8,27.3,3,27.3H27C29.2,27.3,30.6,25,29.5,23.1
		z M15,24.6c-0.9,0-1.6-0.7-1.6-1.6c0-0.9,0.7-1.6,1.6-1.6s1.6,0.7,1.6,1.6C16.6,23.8,15.9,24.6,15,24.6z M17.5,10.6l0,0.1L15.5,18
		c-0.1,0.5-0.9,0.5-1,0l-1.9-7.3l0-0.1c-0.2-0.8,0-1.8,0.7-2.4c1-1,2.6-1,3.6,0C17.5,8.8,17.7,9.7,17.5,10.6z"/>
</g>
</svg>
