<!-- Generated by IcoMoon.io -->
<svg version="1.1" xmlns="http://www.w3.org/2000/svg" width="1024" height="1024" viewBox="0 0 1024 1024">
<title></title>
<g id="icomoon-ignore">
</g>
<path fill="#000" d="M468.114 709.486h387.657c29.257 0 51.2 21.943 51.2 51.2v43.886c0 29.257-21.943 51.2-51.2 51.2h-387.657c-29.257 0-51.2-21.943-51.2-51.2v-36.571c-7.314-29.257 14.629-58.514 51.2-58.514z"></path>
<path fill="#000" d="M468.114 438.857h387.657c29.257 0 51.2 21.943 51.2 51.2v36.571c0 29.257-21.943 51.2-51.2 51.2h-387.657c-36.571 7.314-58.514-14.629-58.514-43.886v-43.886c0-29.257 21.943-51.2 58.514-51.2z"></path>
<path fill="#000" d="M468.114 160.914h387.657c29.257 0 51.2 21.943 51.2 51.2v36.571c0 29.257-21.943 51.2-51.2 51.2h-387.657c-29.257 0-51.2-21.943-51.2-51.2v-29.257c-7.314-29.257 14.629-58.514 51.2-58.514z"></path>
<path fill="#000" d="M175.543 709.486h43.886c29.257 0 51.2 21.943 51.2 51.2v43.886c0 29.257-21.943 51.2-51.2 51.2h-43.886c-29.257 0-51.2-21.943-51.2-51.2v-36.571c-7.314-29.257 14.629-58.514 51.2-58.514z"></path>
<path fill="#000" d="M175.543 438.857h43.886c29.257 0 51.2 21.943 51.2 51.2v36.571c0 36.571-21.943 58.514-51.2 58.514h-43.886c-36.571 0-58.514-21.943-58.514-51.2v-43.886c0-29.257 21.943-51.2 58.514-51.2z"></path>
<path fill="#000" d="M175.543 160.914h43.886c29.257 0 51.2 21.943 51.2 51.2v36.571c0 29.257-21.943 51.2-51.2 51.2h-43.886c-29.257 0-51.2-21.943-51.2-51.2v-29.257c-7.314-29.257 14.629-58.514 51.2-58.514z"></path>
</svg>
