<!-- Generated by IcoMoon.io -->
<svg version="1.1" xmlns="http://www.w3.org/2000/svg" width="1024" height="1024" viewBox="0 0 1024 1024">
<title></title>
<g id="icomoon-ignore">
</g>
<path d="M650.971 629.029h204.8c29.257 0 51.2 21.943 51.2 51.2v124.343c0 29.257-21.943 51.2-51.2 51.2h-204.8c-29.257 0-51.2-21.943-51.2-51.2v-124.343c0-29.257 21.943-51.2 51.2-51.2z"></path>
<path d="M650.971 160.914h204.8c29.257 0 51.2 21.943 51.2 51.2v124.343c0 29.257-21.943 51.2-51.2 51.2h-204.8c-29.257 0-51.2-21.943-51.2-51.2v-124.343c0-29.257 21.943-51.2 51.2-51.2z"></path>
<path d="M168.229 629.029h204.8c29.257 0 51.2 21.943 51.2 51.2v124.343c0 29.257-21.943 51.2-51.2 51.2h-204.8c-29.257 0-51.2-21.943-51.2-51.2v-124.343c0-29.257 21.943-51.2 51.2-51.2z"></path>
<path d="M168.229 160.914h204.8c29.257 0 51.2 21.943 51.2 51.2v124.343c0 29.257-21.943 51.2-51.2 51.2h-204.8c-29.257 0-51.2-21.943-51.2-51.2v-124.343c0-29.257 21.943-51.2 51.2-51.2z"></path>
</svg>
