<!-- Generated by IcoMoon.io -->
<svg version="1.1" xmlns="http://www.w3.org/2000/svg" width="1024" height="1024" viewBox="0 0 1024 1024">
<title></title>
<g id="icomoon-ignore">
</g>
<path d="M541.867 230.4v597.333c0 29.867-34.133 46.933-59.733 29.867l-200.533-174.933c-4.267-4.267-12.8-8.533-21.333-8.533h-136.533c-21.333 0-38.4-17.067-38.4-34.133v-221.867c0-21.333 17.067-34.133 38.4-34.133h136.533c8.533 0 17.067-4.267 21.333-8.533l204.8-174.933c21.333-17.067 55.467 0 55.467 29.867z"></path>
<path d="M699.733 699.733c-8.533 0-17.067-4.267-21.333-8.533-12.8-12.8-12.8-34.133 0-46.933 29.867-29.867 51.2-72.533 51.2-119.467s-17.067-85.333-51.2-119.467c-12.8-12.8-12.8-34.133 0-46.933s34.133-12.8 46.933 0c42.667 42.667 68.267 102.4 68.267 162.133 0 64-25.6 119.467-68.267 162.133-8.533 17.067-17.067 17.067-25.6 17.067z"></path>
<path d="M819.2 819.2c-8.533 0-17.067-4.267-21.333-8.533-12.8-12.8-12.8-34.133 0-46.933 132.267-132.267 132.267-345.6 0-477.867-12.8-12.8-12.8-34.133 0-46.933s34.133-12.8 46.933 0c76.8 76.8 119.467 174.933 119.467 281.6s-42.667 209.067-119.467 281.6c-12.8 17.067-17.067 17.067-25.6 17.067z"></path>
</svg>
