<?xml version="1.0" encoding="utf-8"?>
<!-- Generator: Adobe Illustrator 22.1.0, SVG Export Plug-In . SVG Version: 6.00 Build 0)  -->
<svg version="1.1" id="Layer_1" xmlns="http://www.w3.org/2000/svg" xmlns:xlink="http://www.w3.org/1999/xlink" x="0px" y="0px"
	 viewBox="0 0 1024 1024" style="enable-background:new 0 0 1024 1024;" xml:space="preserve">
<style type="text/css">
	.st0{display:none;}
	.st1{display:inline;}
	.st2{fill:#FFFFFF;}
	.st3{display:inline;fill:#07DD96;}
	.st4{display:none;fill:#07DD96;}
	.st5{display:none;fill:#DF0000;}
	.st6{display:none;fill:#FFFFFF;}
</style>
<title></title>
<g id="icomoon-ignore">
</g>
<g class="st0">
	<g class="st1">
		<path class="st2" d="M861.9,562.2c0,85-65.5,155.2-148.6,161.9v1H309.8v-1.9l-1.9,1.9h-16.6c-73.1,0-132-59.3-132-132
			c0-73.1,58.9-132,132-132c0-89.7,72.6-162.3,162.3-162.3c77.9,0,142.4,54.6,158.5,127.2c25.2-16.6,55.1-26.1,87.3-26.1
			C789.2,399.9,861.9,473,861.9,562.2z"/>
	</g>
</g>
<g class="st0">
	<path class="st3" d="M-569.3,1288.2h-150.6l-212.4,212.4c-5,5.1-7.9,11.5-7.9,18.8c0,7.2,2.9,13.7,7.9,18.8l139.5,139.7
		c5,4.8,11.8,7.7,18.8,7.7c7.2,0,13.7-2.9,18.8-7.7l212.4-212.6v-150.6C-542.9,1300-554.7,1288.2-569.3,1288.2z M-600.1,1403.6
		c-16.1,16.1-42.1,16.1-58.2,0c-16.1-16.1-16.1-42.1,0-58.2c16.1-16.1,42.1-16.1,58.2,0C-584,1361.5-584,1387.5-600.1,1403.6z"/>
</g>
<path class="st4" d="M-1517.9,1469.4c-23.3,0-38.9,16.2-38.9,40.7c0,23.9,15.6,40.1,38.9,40.1c23,0,38.6-16.2,38.6-40.1
	C-1479.3,1485.6-1494.9,1469.4-1517.9,1469.4z M-1517.9,1469.4c-23.3,0-38.9,16.2-38.9,40.7c0,23.9,15.6,40.1,38.9,40.1
	c23,0,38.6-16.2,38.6-40.1C-1479.3,1485.6-1494.9,1469.4-1517.9,1469.4z M-1517.9,1469.4c-23.3,0-38.9,16.2-38.9,40.7
	c0,23.9,15.6,40.1,38.9,40.1c23,0,38.6-16.2,38.6-40.1C-1479.3,1485.6-1494.9,1469.4-1517.9,1469.4z M-1290.6,1399.6
	c-23,0-38.6,16.2-38.6,40.1c0,24.5,15.6,41,38.6,41c23,0,38.9-16.8,38.9-41C-1251.7,1415.8-1267.4,1399.6-1290.6,1399.6z
	 M-1290.6,1399.6c-23,0-38.6,16.2-38.6,40.1c0,24.5,15.6,41,38.6,41c23,0,38.9-16.8,38.9-41
	C-1251.7,1415.8-1267.4,1399.6-1290.6,1399.6z M-1517.9,1469.4c-23.3,0-38.9,16.2-38.9,40.7c0,23.9,15.6,40.1,38.9,40.1
	c23,0,38.6-16.2,38.6-40.1C-1479.3,1485.6-1494.9,1469.4-1517.9,1469.4z M-1517.9,1469.4c-23.3,0-38.9,16.2-38.9,40.7
	c0,23.9,15.6,40.1,38.9,40.1c23,0,38.6-16.2,38.6-40.1C-1479.3,1485.6-1494.9,1469.4-1517.9,1469.4z M-1290.6,1399.6
	c-23,0-38.6,16.2-38.6,40.1c0,24.5,15.6,41,38.6,41c23,0,38.9-16.8,38.9-41C-1251.7,1415.8-1267.4,1399.6-1290.6,1399.6z
	 M-1290.6,1399.6c-23,0-38.6,16.2-38.6,40.1c0,24.5,15.6,41,38.6,41c23,0,38.9-16.8,38.9-41
	C-1251.7,1415.8-1267.4,1399.6-1290.6,1399.6z M-1517.9,1469.4c-23.3,0-38.9,16.2-38.9,40.7c0,23.9,15.6,40.1,38.9,40.1
	c23,0,38.6-16.2,38.6-40.1C-1479.3,1485.6-1494.9,1469.4-1517.9,1469.4z M-1517.9,1469.4c-23.3,0-38.9,16.2-38.9,40.7
	c0,23.9,15.6,40.1,38.9,40.1c23,0,38.6-16.2,38.6-40.1C-1479.3,1485.6-1494.9,1469.4-1517.9,1469.4z M-1290.6,1399.6
	c-23,0-38.6,16.2-38.6,40.1c0,24.5,15.6,41,38.6,41c23,0,38.9-16.8,38.9-41C-1251.7,1415.8-1267.4,1399.6-1290.6,1399.6z
	 M-1290.6,1399.6c-23,0-38.6,16.2-38.6,40.1c0,24.5,15.6,41,38.6,41c23,0,38.9-16.8,38.9-41
	C-1251.7,1415.8-1267.4,1399.6-1290.6,1399.6z M-1517.9,1469.4c-23.3,0-38.9,16.2-38.9,40.7c0,23.9,15.6,40.1,38.9,40.1
	c23,0,38.6-16.2,38.6-40.1C-1479.3,1485.6-1494.9,1469.4-1517.9,1469.4z M-1176.4,1272.2h-577.2c-21.1,0-38,17.1-38,38v353.1
	c0,21.1,16.8,38,38,38h577.2c20.8,0,38-16.8,38-38v-353.1C-1138.4,1289.4-1155.6,1272.2-1176.4,1272.2z M-1595.6,1576h-108.7v-29.1
	h38.9v-142.1h-42.9v-24.5l52.4-6.4h21.7v173h38.6V1576z M-1517.9,1580c-41.6,0-71-30-71-72.6c0-43.8,25.1-88.2,73.8-132l1.8-1.5h45
	l-13.2,10.7c-17.5,14.4-39.8,35.2-55.7,59.7c6.1-2.1,13.5-3.7,22-3.7c38.9,0,68,29.7,68,69.5C-1447.1,1549.3-1478,1580-1517.9,1580z
	 M-1405.2,1572c-10.7,0-18.7-7.3-18.7-18.4c0-10.4,8-18.4,18.7-18.4c10.7,0,18.7,8,18.7,18.4
	C-1386.5,1564.6-1394.4,1572-1405.2,1572z M-1405.2,1460.2c-10.7,0-18.7-7.7-18.7-18.4s8-18.7,18.7-18.7c10.7,0,18.7,8,18.7,18.7
	S-1394.4,1460.2-1405.2,1460.2z M-1293.7,1574.4l-1.8,1.5h-44.7l13.2-10.7c17.1-13.8,39.5-34.6,55.4-59.4c-6.7,2.4-14.1,3.7-22,3.7
	c-39.2,0-68-29.4-68-69.8c0-39.8,30.6-69.8,71-69.8c41.6,0,70.7,30,70.7,72.6C-1219.9,1486.9-1244.1,1530-1293.7,1574.4z
	 M-1290.6,1399.6c-23,0-38.6,16.2-38.6,40.1c0,24.5,15.6,41,38.6,41c23,0,38.9-16.8,38.9-41
	C-1251.7,1415.8-1267.4,1399.6-1290.6,1399.6z M-1517.9,1469.4c-23.3,0-38.9,16.2-38.9,40.7c0,23.9,15.6,40.1,38.9,40.1
	c23,0,38.6-16.2,38.6-40.1C-1479.3,1485.6-1494.9,1469.4-1517.9,1469.4z M-1517.9,1469.4c-23.3,0-38.9,16.2-38.9,40.7
	c0,23.9,15.6,40.1,38.9,40.1c23,0,38.6-16.2,38.6-40.1C-1479.3,1485.6-1494.9,1469.4-1517.9,1469.4z M-1290.6,1399.6
	c-23,0-38.6,16.2-38.6,40.1c0,24.5,15.6,41,38.6,41c23,0,38.9-16.8,38.9-41C-1251.7,1415.8-1267.4,1399.6-1290.6,1399.6z
	 M-1290.6,1399.6c-23,0-38.6,16.2-38.6,40.1c0,24.5,15.6,41,38.6,41c23,0,38.9-16.8,38.9-41
	C-1251.7,1415.8-1267.4,1399.6-1290.6,1399.6z M-1517.9,1469.4c-23.3,0-38.9,16.2-38.9,40.7c0,23.9,15.6,40.1,38.9,40.1
	c23,0,38.6-16.2,38.6-40.1C-1479.3,1485.6-1494.9,1469.4-1517.9,1469.4z M-1517.9,1469.4c-23.3,0-38.9,16.2-38.9,40.7
	c0,23.9,15.6,40.1,38.9,40.1c23,0,38.6-16.2,38.6-40.1C-1479.3,1485.6-1494.9,1469.4-1517.9,1469.4z M-1290.6,1399.6
	c-23,0-38.6,16.2-38.6,40.1c0,24.5,15.6,41,38.6,41c23,0,38.9-16.8,38.9-41C-1251.7,1415.8-1267.4,1399.6-1290.6,1399.6z
	 M-1290.6,1399.6c-23,0-38.6,16.2-38.6,40.1c0,24.5,15.6,41,38.6,41c23,0,38.9-16.8,38.9-41
	C-1251.7,1415.8-1267.4,1399.6-1290.6,1399.6z M-1517.9,1469.4c-23.3,0-38.9,16.2-38.9,40.7c0,23.9,15.6,40.1,38.9,40.1
	c23,0,38.6-16.2,38.6-40.1C-1479.3,1485.6-1494.9,1469.4-1517.9,1469.4z M-1517.9,1469.4c-23.3,0-38.9,16.2-38.9,40.7
	c0,23.9,15.6,40.1,38.9,40.1c23,0,38.6-16.2,38.6-40.1C-1479.3,1485.6-1494.9,1469.4-1517.9,1469.4z M-1517.9,1469.4
	c-23.3,0-38.9,16.2-38.9,40.7c0,23.9,15.6,40.1,38.9,40.1c23,0,38.6-16.2,38.6-40.1C-1479.3,1485.6-1494.9,1469.4-1517.9,1469.4z"/>
<path class="st2" d="M457.2,500c-22.6,0-37.8,15.8-37.8,39.5c0,23.2,15.2,38.9,37.8,38.9c22.3,0,37.5-15.8,37.5-38.9
	C494.7,515.8,479.5,500,457.2,500z M457.2,500c-22.6,0-37.8,15.8-37.8,39.5c0,23.2,15.2,38.9,37.8,38.9c22.3,0,37.5-15.8,37.5-38.9
	C494.7,515.8,479.5,500,457.2,500z M457.2,500c-22.6,0-37.8,15.8-37.8,39.5c0,23.2,15.2,38.9,37.8,38.9c22.3,0,37.5-15.8,37.5-38.9
	C494.7,515.8,479.5,500,457.2,500z M677.8,432.3c-22.3,0-37.5,15.8-37.5,38.9c0,23.8,15.2,39.8,37.5,39.8s37.8-16.4,37.8-39.8
	C715.6,448,700.4,432.3,677.8,432.3z M677.8,432.3c-22.3,0-37.5,15.8-37.5,38.9c0,23.8,15.2,39.8,37.5,39.8s37.8-16.4,37.8-39.8
	C715.6,448,700.4,432.3,677.8,432.3z M457.2,500c-22.6,0-37.8,15.8-37.8,39.5c0,23.2,15.2,38.9,37.8,38.9
	c22.3,0,37.5-15.8,37.5-38.9C494.7,515.8,479.5,500,457.2,500z M457.2,500c-22.6,0-37.8,15.8-37.8,39.5c0,23.2,15.2,38.9,37.8,38.9
	c22.3,0,37.5-15.8,37.5-38.9C494.7,515.8,479.5,500,457.2,500z M677.8,432.3c-22.3,0-37.5,15.8-37.5,38.9
	c0,23.8,15.2,39.8,37.5,39.8s37.8-16.4,37.8-39.8C715.6,448,700.4,432.3,677.8,432.3z M677.8,432.3c-22.3,0-37.5,15.8-37.5,38.9
	c0,23.8,15.2,39.8,37.5,39.8s37.8-16.4,37.8-39.8C715.6,448,700.4,432.3,677.8,432.3z M457.2,500c-22.6,0-37.8,15.8-37.8,39.5
	c0,23.2,15.2,38.9,37.8,38.9c22.3,0,37.5-15.8,37.5-38.9C494.7,515.8,479.5,500,457.2,500z M457.2,500c-22.6,0-37.8,15.8-37.8,39.5
	c0,23.2,15.2,38.9,37.8,38.9c22.3,0,37.5-15.8,37.5-38.9C494.7,515.8,479.5,500,457.2,500z M677.8,432.3
	c-22.3,0-37.5,15.8-37.5,38.9c0,23.8,15.2,39.8,37.5,39.8s37.8-16.4,37.8-39.8C715.6,448,700.4,432.3,677.8,432.3z M677.8,432.3
	c-22.3,0-37.5,15.8-37.5,38.9c0,23.8,15.2,39.8,37.5,39.8s37.8-16.4,37.8-39.8C715.6,448,700.4,432.3,677.8,432.3z M457.2,500
	c-22.6,0-37.8,15.8-37.8,39.5c0,23.2,15.2,38.9,37.8,38.9c22.3,0,37.5-15.8,37.5-38.9C494.7,515.8,479.5,500,457.2,500z
	 M788.7,308.6H228.3c-20.5,0-36.9,16.6-36.9,36.9v342.8c0,20.5,16.4,36.9,36.9,36.9h560.4c20.2,0,36.9-16.4,36.9-36.9V345.4
	C825.6,325.2,808.9,308.6,788.7,308.6z M381.7,603.5H276.2v-28.2h37.8v-138h-41.6v-23.8l50.8-6.2h21.1v168h37.5V603.5z M457.2,607.4
	c-40.4,0-69-29.1-69-70.5c0-42.5,24.4-85.6,71.7-128.1l1.8-1.5h43.7l-12.8,10.4c-16.9,14-38.6,34.2-54.1,58
	c5.9-2.1,13.1-3.6,21.4-3.6c37.8,0,66,28.8,66,67.5C525.9,577.6,495.9,607.4,457.2,607.4z M566.6,599.6c-10.4,0-18.1-7.1-18.1-17.8
	c0-10.1,7.7-17.8,18.1-17.8c10.4,0,18.1,7.7,18.1,17.8C584.8,592.5,577,599.6,566.6,599.6z M566.6,491.1c-10.4,0-18.1-7.4-18.1-17.8
	s7.7-18.1,18.1-18.1c10.4,0,18.1,7.7,18.1,18.1S577,491.1,566.6,491.1z M674.8,602l-1.8,1.5h-43.4l12.8-10.4
	c16.6-13.4,38.4-33.6,53.8-57.7c-6.5,2.4-13.7,3.6-21.4,3.6c-38.1,0-66-28.5-66-67.8c0-38.6,29.7-67.8,69-67.8
	c40.4,0,68.7,29.1,68.7,70.5C746.5,517,723,558.9,674.8,602z M677.8,432.3c-22.3,0-37.5,15.8-37.5,38.9c0,23.8,15.2,39.8,37.5,39.8
	s37.8-16.4,37.8-39.8C715.6,448,700.4,432.3,677.8,432.3z M457.2,500c-22.6,0-37.8,15.8-37.8,39.5c0,23.2,15.2,38.9,37.8,38.9
	c22.3,0,37.5-15.8,37.5-38.9C494.7,515.8,479.5,500,457.2,500z M457.2,500c-22.6,0-37.8,15.8-37.8,39.5c0,23.2,15.2,38.9,37.8,38.9
	c22.3,0,37.5-15.8,37.5-38.9C494.7,515.8,479.5,500,457.2,500z M677.8,432.3c-22.3,0-37.5,15.8-37.5,38.9
	c0,23.8,15.2,39.8,37.5,39.8s37.8-16.4,37.8-39.8C715.6,448,700.4,432.3,677.8,432.3z M677.8,432.3c-22.3,0-37.5,15.8-37.5,38.9
	c0,23.8,15.2,39.8,37.5,39.8s37.8-16.4,37.8-39.8C715.6,448,700.4,432.3,677.8,432.3z M457.2,500c-22.6,0-37.8,15.8-37.8,39.5
	c0,23.2,15.2,38.9,37.8,38.9c22.3,0,37.5-15.8,37.5-38.9C494.7,515.8,479.5,500,457.2,500z M457.2,500c-22.6,0-37.8,15.8-37.8,39.5
	c0,23.2,15.2,38.9,37.8,38.9c22.3,0,37.5-15.8,37.5-38.9C494.7,515.8,479.5,500,457.2,500z M677.8,432.3
	c-22.3,0-37.5,15.8-37.5,38.9c0,23.8,15.2,39.8,37.5,39.8s37.8-16.4,37.8-39.8C715.6,448,700.4,432.3,677.8,432.3z M677.8,432.3
	c-22.3,0-37.5,15.8-37.5,38.9c0,23.8,15.2,39.8,37.5,39.8s37.8-16.4,37.8-39.8C715.6,448,700.4,432.3,677.8,432.3z M457.2,500
	c-22.6,0-37.8,15.8-37.8,39.5c0,23.2,15.2,38.9,37.8,38.9c22.3,0,37.5-15.8,37.5-38.9C494.7,515.8,479.5,500,457.2,500z M457.2,500
	c-22.6,0-37.8,15.8-37.8,39.5c0,23.2,15.2,38.9,37.8,38.9c22.3,0,37.5-15.8,37.5-38.9C494.7,515.8,479.5,500,457.2,500z M457.2,500
	c-22.6,0-37.8,15.8-37.8,39.5c0,23.2,15.2,38.9,37.8,38.9c22.3,0,37.5-15.8,37.5-38.9C494.7,515.8,479.5,500,457.2,500z"/>
<g class="st0">
	<path class="st3" d="M238.9,1455.4c-2.7-3.5-6.7-5.4-11-5.4h-59.3v-103.2c0-7.3-5.9-13.5-13.5-13.5h-239l-24.5-42
		c-2.4-4-6.7-6.5-11.6-6.5H-292c-7.3,0-13.5,5.9-13.5,13.5v377.3c0,1.6,0.3,3.2,0.8,4.6c0.5,1.1,1.1,2.2,1.6,3
		c0.3,0,0.3,0.3,0.3,0.3c0.5,0.8,1.3,1.6,2.2,2.4c0.8,0.5,1.6,1.3,2.4,1.6c1.9,1.1,4,1.6,6.2,1.6h447c1.1,0,1.9,0,3-0.3
		c0.8-0.3,1.6-0.5,2.4-0.8c3.2-1.3,5.7-3.8,7-7c0.3-0.3,0.5-0.5,0.5-1.1l72.5-212.1C242.1,1463.4,241.3,1459.1,238.9,1455.4z
		 M-11.2,1450l-13.7-24.8c-2.4-4-6.7-6.7-11.6-6.7h-171.9c-5.7,0-10.8,3.5-12.7,9.2l-57.4,167.3v-283.2h150.6l24.5,41.8
		c2.4,4.3,7,6.7,11.6,6.7h233.4v89.7H-11.2z"/>
</g>
<path class="st5" d="M1034.6,1689c-24.3,0-47-12.7-59.9-34.7l-95.4-163.2v127.1c0,38.7-31.5,70.2-70.2,70.2H683.9
	c-106.5,0-193.2-86.7-193.2-193.2c0-106.5,86.7-193.2,193.2-193.2h61.2v104.2h-61.2c-49.1,0-89,39.9-89,89c0,49.1,39.9,89,89,89
	h91.2v-212.9c0-32.8,21.3-60.7,53-69.3c31.7-8.6,64.1,4.7,80.7,33.1l91.9,157.3v-121.1c0-32.8,21.3-60.7,53-69.3
	c31.7-8.6,64.1,4.7,80.7,33.1l91.9,157.3v-194.9h104.2V1619c0,32-20.7,59.1-51.6,67.5c-30.9,8.4-62.5-4.6-78.6-32.2l-95.4-163.2
	V1619c0,32-20.7,59.1-51.6,67.5C1047,1688.2,1040.7,1689,1034.6,1689z"/>
<path class="st6" d="M1260.5,1644.3c-8.8,0-17-4.6-21.6-12.5L1083,1365.1c-3.5-5.9-9.4-6.8-13.7-5.6c-4.4,1.2-9,4.9-9,11.8V1619
	c0,11.6-7.5,21.3-18.6,24.4c-11.1,3-22.6-1.7-28.4-11.6l-155.8-266.6c-3.5-5.9-9.4-6.8-13.7-5.6c-4.4,1.2-9,4.9-9,11.8v246.9
	c0,14.1-11.5,25.5-25.5,25.5H683.9c-81.9,0-148.5-66.6-148.5-148.5c0-81.9,66.6-148.5,148.5-148.5h61.2v14.9h-61.2
	c-73.7,0-133.7,60-133.7,133.7c0,73.7,60,133.7,133.7,133.7h125.2c5.9,0,10.6-4.8,10.6-10.6v-246.9c0-12.4,8-22.9,20-26.2
	c12-3.2,24.2,1.8,30.5,12.5l155.8,266.6c2.9,5,8,5.8,11.7,4.8c3.7-1,7.7-4.2,7.7-10v-247.7c0-12.4,8-22.9,20-26.2
	c12-3.2,24.2,1.8,30.5,12.5l155.8,266.6c2.9,5,8,5.8,11.7,4.8c3.7-1,7.7-4.2,7.7-10v-321.6h14.9V1619c0,11.6-7.5,21.3-18.6,24.4
	C1265,1644,1262.7,1644.3,1260.5,1644.3z"/>
</svg>
