<?xml version="1.0" encoding="UTF-8" standalone="no"?>
<svg
   xmlns:dc="http://purl.org/dc/elements/1.1/"
   xmlns:cc="http://creativecommons.org/ns#"
   xmlns:rdf="http://www.w3.org/1999/02/22-rdf-syntax-ns#"
   xmlns:svg="http://www.w3.org/2000/svg"
   xmlns="http://www.w3.org/2000/svg"
   id="svg2"
   version="1.1"
   xml:space="preserve"
   width="1118.15"
   height="261.625"
   viewBox="0 0 1118.15 261.625"><metadata
     id="metadata8"><rdf:RDF><cc:Work
         rdf:about=""><dc:format>image/svg+xml</dc:format><dc:type
           rdf:resource="http://purl.org/dc/dcmitype/StillImage" /><dc:title></dc:title></cc:Work></rdf:RDF></metadata><defs
     id="defs6" /><g
     id="g3375"><path
       id="path14"
       style="fill:#ed1c24;fill-opacity:1;fill-rule:nonzero;stroke:none"
       d="m 0,261.50244 261.505,0 0,-261.5037525 -261.505,0 0,261.5037525 z" /><path
       id="path16"
       style="fill:#ffffff;fill-opacity:1;fill-rule:nonzero;stroke:none"
       d="m 53.122125,130.75125 c 0,-11.00125 8.9165,-19.92375 19.917375,-19.92375 l 15.11425,0 0,-11.27875 -15.23575,0 c -17.208,0 -31.205625,13.99625 -31.205625,31.2025 0,17.20387 13.997625,31.20725 31.205625,31.20725 l 29.33738,0 c 1.64062,0 2.959,-1.61625 2.959,-2.95463 l 0,-57.79387 c 0,-3.1875 2.0005,-5.8775 4.97062,-6.68125 2.53963,-0.69375 6.09375,0.0075 8.47275,4.04625 0.11038,0.1875 7.316,12.615 18.30225,31.54875 8.62375,14.865 17.5375,30.2425 17.70625,30.514 0.915,1.56975 2.18125,2.311 3.38875,1.98337 0.75875,-0.20125 1.64125,-0.93612 1.64125,-2.32862 l 0,-59.0825 c 0.004,-3.19375 1.99,-5.88 4.95625,-6.68125 2.52,-0.69 6.0575,0.01125 8.4325,4.04625 0.105,0.17625 6.48,11.16625 16.965,29.2425 9.2675,15.99112 18.85875,32.515 19.04,32.82025 0.9225,1.56975 2.1875,2.311 3.39,1.98337 0.76125,-0.20125 1.64375,-0.93612 1.64375,-2.32862 l 0,-76.5475 -11.30875,0 0,45.57625 c 0,0 -18.89375,-32.55625 -19.75875,-34.03375 -12.00125,-20.375 -34.6725,-11.9525 -34.6725,5.5875 l 0,28.44625 c 0,0 -18.89375,-32.55625 -19.75875,-34.03375 C 116.6245,74.9125 93.9595,83.335 93.9595,100.875 l 0,46.61762 c 0.0034,1.69638 -1.268625,3.17338 -3.1285,3.17338 l -17.7915,0 c -11.000875,0 -19.917375,-8.91113 -19.917375,-19.91475" /><path
       id="path18"
       style="fill:#ffffff;fill-opacity:1;fill-rule:nonzero;stroke:none"
       d="m 218.64125,83.745 0,76.5475 c 0,3.18012 -2,5.8725 -4.97375,6.68363 -0.54375,0.15037 -1.1375,0.23137 -1.75875,0.23137 -2.25875,0 -4.8425,-1.10988 -6.71125,-4.28125 -0.1,-0.1675 -7.61125,-13.11763 -19.05125,-32.84875 -8.255,-14.2275 -16.79625,-28.945 -16.95,-29.21375 -0.92625,-1.5675 -2.1775,-2.3075 -3.36,-1.98375 -0.7475,0.2 -1.62625,0.935 -1.62625,2.33 l 0,59.0825 c 0,3.18013 -2,5.8725 -4.96625,6.68363 -2.545,0.69137 -6.09875,-0.0123 -8.47375,-4.04988 -0.0975,-0.1635 -7.0775,-12.19875 -17.71625,-30.5375 -8.90975,-15.36 -18.12062,-31.24375 -18.28862,-31.525 -0.92238,-1.5675 -2.19138,-2.3075 -3.38863,-1.98375 -0.75887,0.21 -1.645,0.94125 -1.645,2.33 l 0,57.79388 c 0,3.98 -3.49662,7.46337 -7.47612,7.46337 l -29.33738,0 c -19.69825,0 -35.71825,-16.021 -35.71825,-35.716 0,-19.69625 16.02,-35.72375 35.71825,-35.72375 l 15.23575,0 0,-11.2825 -15.221625,0 c -25.961375,0 -47.004875,21.0475 -47.004875,47.00625 0,25.95625 21.0435,47.00263 47.004875,47.00263 l 29.621625,0 c 11.25825,0.0112 18.5005,-6.58888 18.49063,-18.7675 l 0,-26.80513 c 0,0 18.88937,32.55363 19.76187,34.03013 12,20.376 34.665,11.95225 34.665,-5.59125 l 0,-28.43888 c 0,0 18.89375,32.55363 19.76,34.03013 11.99875,20.376 34.67125,11.95225 34.67125,-5.59125 l 0,-76.87513 -11.26125,0" /><path
       id="path20"
       style="fill:#100f0d;fill-opacity:1;fill-rule:nonzero;stroke:none"
       d="m 309.015,83.85 20.50625,0 39.17125,62.964 0.2625,0 0,-62.964 19.3225,0 0,93.85362 -20.6375,0 -39.04,-62.83112 -0.2625,0 0,62.83112 -19.3225,0 0,-93.85362" /><path
       id="path22"
       style="fill:#100f0d;fill-opacity:1;fill-rule:nonzero;stroke:none"
       d="m 398.525,83.85 70.19375,0 0,17.35125 -49.55625,0 0,20.1125 45.48125,0 0,16.03637 -45.48125,0 0,23.00338 50.6075,0 0,17.35012 -71.245,0 0,-93.85362" /><path
       id="path24"
       style="fill:#100f0d;fill-opacity:1;fill-rule:nonzero;stroke:none"
       d="m 575.71125,177.70362 -20.50625,0 -15.905,-63.88237 -0.26375,0 -15.6425,63.88237 -20.89875,0 -24.84375,-93.85362 20.63625,0 14.855,63.88387 0.2625,0 16.29875,-63.88387 19.3225,0 16.0375,64.6725 0.2625,0 15.37875,-64.6725 20.24375,0 -25.2375,93.85362" /><path
       id="path26"
       style="fill:#100f0d;fill-opacity:1;fill-rule:nonzero;stroke:none"
       d="m 621.83875,146.54975 c 0,12.48787 9.7275,17.35162 20.77,17.35162 7.23,0 18.27125,-2.1025 18.27125,-11.69875 0,-10.12012 -14.065,-11.82912 -27.8675,-15.51125 -13.9325,-3.68012 -27.99875,-9.06887 -27.99875,-26.68262 0,-19.19125 18.14,-28.3925 35.0975,-28.3925 19.58625,0 37.595,8.54375 37.595,30.2325 l -19.98125,0 C 657.06875,100.545 649.05,97.6525 639.19125,97.6525 c -6.5725,0 -14.19625,2.76 -14.19625,10.6475 0,7.23 4.47,8.15 27.9975,14.19625 6.83625,1.70875 27.8675,6.04625 27.8675,27.34012 0,17.21975 -13.53875,30.10263 -39.04,30.10263 -20.76875,0 -40.2225,-10.253 -39.96,-33.38925 l 19.97875,0" /><path
       id="path28"
       style="fill:#100f0d;fill-opacity:1;fill-rule:nonzero;stroke:none"
       d="m 731.33,169.42237 c 22.8725,0 32.4675,-19.71637 32.4675,-38.64487 0,-18.92875 -9.595,-38.64625 -32.4675,-38.64625 -22.8725,0 -32.46875,19.7175 -32.46875,38.64625 0,18.9285 9.59625,38.64487 32.46875,38.64487 z m 0,-87.80612 c 29.83875,0 44.955,23.66 44.955,49.16125 0,25.49987 -15.11625,49.1615 -44.955,49.1615 -29.83875,0 -44.955,-23.66163 -44.955,-49.1615 0,-25.50125 15.11625,-49.16125 44.955,-49.16125" /><path
       id="path30"
       style="fill:#100f0d;fill-opacity:1;fill-rule:nonzero;stroke:none"
       d="m 861.19375,143.79 c 0,23.66112 -13.53875,36.149 -36.9375,36.149 -24.1875,0 -38.51375,-11.17288 -38.51375,-36.149 l 0,-59.94 12.4875,0 0,59.94 c 0,16.5635 9.465,25.63238 26.02625,25.63238 15.77375,0 24.45,-9.06888 24.45,-25.63238 l 0,-59.94 12.4875,0 0,59.94" /><path
       id="path32"
       style="fill:#100f0d;fill-opacity:1;fill-rule:nonzero;stroke:none"
       d="m 914.4225,127.09625 c 11.69875,0 21.68875,-3.0225 21.68875,-16.69375 0,-9.20125 -4.995,-16.03625 -16.69375,-16.03625 l -31.02125,0 0,32.73 26.02625,0 z M 875.90875,83.85 l 44.165,0 c 17.615,0 28.52375,9.59625 28.52375,24.58125 0,11.305 -4.99375,20.6375 -16.2975,23.7925 l 0,0.26125 c 10.91,2.105 13.145,10.12237 14.06375,19.32362 0.78875,9.20113 0.2625,19.455 5.52125,25.895 l -13.9325,0 c -3.55,-3.811 -1.57875,-13.93212 -3.42,-23.13375 -1.3125,-9.20125 -3.54625,-16.95762 -15.64,-16.95762 l -30.49625,0 0,40.09137 -12.4875,0 0,-93.85362" /><path
       id="path34"
       style="fill:#100f0d;fill-opacity:1;fill-rule:nonzero;stroke:none"
       d="m 1026.6725,112.11125 c -2.6288,-13.27625 -13.275,-19.98 -26.2888,-19.98 -22.3462,0 -31.80995,18.40375 -31.80995,37.98875 0,21.42638 9.46375,39.30238 31.94245,39.30238 16.43,0 25.895,-11.56588 27.0776,-27.07863 l 12.4875,0 c -2.3663,23.39887 -16.9563,37.59525 -40.61755,37.59525 -29.1825,0 -43.3775,-21.55763 -43.3775,-48.899 0,-27.21 15.51,-49.42375 44.43005,-49.42375 19.585,0 35.7537,10.515 38.645,30.495 l -12.4888,0" /><path
       id="path36"
       style="fill:#100f0d;fill-opacity:1;fill-rule:nonzero;stroke:none"
       d="m 1052.9563,83.85 64.8037,0 0,10.51625 -52.315,0 0,29.83875 48.7662,0 0,10.515 -48.7662,0 0,32.4675 52.7088,0 0,10.51612 -65.1975,0 0,-93.85362" /></g></svg>