<?xml version="1.0" encoding="utf-8"?>
<!-- Generator: Adobe Illustrator 22.1.0, SVG Export Plug-In . SVG Version: 6.00 Build 0)  -->
<svg version="1.1"
	 id="svg2" xmlns:cc="http://creativecommons.org/ns#" xmlns:dc="http://purl.org/dc/elements/1.1/" xmlns:rdf="http://www.w3.org/1999/02/22-rdf-syntax-ns#" xmlns:svg="http://www.w3.org/2000/svg"
	 xmlns="http://www.w3.org/2000/svg" xmlns:xlink="http://www.w3.org/1999/xlink" x="0px" y="0px" viewBox="0 0 1118.2 261.6"
	 style="enable-background:new 0 0 1118.2 261.6;" xml:space="preserve">
<style type="text/css">
	.st0{fill:#ED1C24;}
	.st1{fill:#FFFFFF;}
	.st2{fill:#4D4D4D;}
</style>
<g id="g3375">
	<path id="path14" class="st0" d="M0,261.5h261.5V0H0V261.5z"/>
	<path id="path16" class="st1" d="M53.1,130.8c0-11,8.9-19.9,19.9-19.9h15.1V99.5H72.9c-17.2,0-31.2,14-31.2,31.2
		c0,17.2,14,31.2,31.2,31.2h29.3c1.6,0,3-1.6,3-3v-57.8c0-3.2,2-5.9,5-6.7c2.5-0.7,6.1,0,8.5,4c0.1,0.2,7.3,12.6,18.3,31.5
		c8.6,14.9,17.5,30.2,17.7,30.5c0.9,1.6,2.2,2.3,3.4,2c0.8-0.2,1.6-0.9,1.6-2.3v-59.1c0-3.2,2-5.9,5-6.7c2.5-0.7,6.1,0,8.4,4
		c0.1,0.2,6.5,11.2,17,29.2c9.3,16,18.9,32.5,19,32.8c0.9,1.6,2.2,2.3,3.4,2c0.8-0.2,1.6-0.9,1.6-2.3V83.7h-11.3v45.6
		c0,0-18.9-32.6-19.8-34c-12-20.4-34.7-12-34.7,5.6v28.4c0,0-18.9-32.6-19.8-34c-12-20.4-34.7-12-34.7,5.6v46.6
		c0,1.7-1.3,3.2-3.1,3.2H73C62,150.7,53.1,141.8,53.1,130.8"/>
	<path id="path18" class="st1" d="M218.6,83.7v76.5c0,3.2-2,5.9-5,6.7c-0.5,0.2-1.1,0.2-1.8,0.2c-2.3,0-4.8-1.1-6.7-4.3
		c-0.1-0.2-7.6-13.1-19.1-32.8c-8.3-14.2-16.8-28.9-16.9-29.2c-0.9-1.6-2.2-2.3-3.4-2c-0.7,0.2-1.6,0.9-1.6,2.3v59.1
		c0,3.2-2,5.9-5,6.7c-2.5,0.7-6.1,0-8.5-4c-0.1-0.2-7.1-12.2-17.7-30.5c-8.9-15.4-18.1-31.2-18.3-31.5c-0.9-1.6-2.2-2.3-3.4-2
		c-0.8,0.2-1.6,0.9-1.6,2.3V159c0,4-3.5,7.5-7.5,7.5H72.9c-19.7,0-35.7-16-35.7-35.7c0-19.7,16-35.7,35.7-35.7h15.2V83.7H72.9
		c-26,0-47,21-47,47c0,26,21,47,47,47h29.6c11.3,0,18.5-6.6,18.5-18.8v-26.8c0,0,18.9,32.6,19.8,34c12,20.4,34.7,12,34.7-5.6v-28.4
		c0,0,18.9,32.6,19.8,34c12,20.4,34.7,12,34.7-5.6V83.7L218.6,83.7"/>
	<path id="path20" class="st2" d="M309,83.8h20.5l39.2,63h0.3v-63h19.3v93.9h-20.6l-39-62.8h-0.3v62.8H309L309,83.8"/>
	<path id="path22" class="st2" d="M398.5,83.8h70.2v17.4h-49.6v20.1h45.5v16h-45.5v23h50.6v17.4h-71.2L398.5,83.8"/>
	<path id="path24" class="st2" d="M575.7,177.7h-20.5l-15.9-63.9H539l-15.6,63.9h-20.9l-24.8-93.9h20.6l14.9,63.9h0.3l16.3-63.9H549
		l16,64.7h0.3l15.4-64.7h20.2L575.7,177.7"/>
	<path id="path26" class="st2" d="M621.8,146.5c0,12.5,9.7,17.4,20.8,17.4c7.2,0,18.3-2.1,18.3-11.7c0-10.1-14.1-11.8-27.9-15.5
		c-13.9-3.7-28-9.1-28-26.7c0-19.2,18.1-28.4,35.1-28.4c19.6,0,37.6,8.5,37.6,30.2h-20c-0.7-11.3-8.7-14.2-18.5-14.2
		c-6.6,0-14.2,2.8-14.2,10.6c0,7.2,4.5,8.2,28,14.2c6.8,1.7,27.9,6,27.9,27.3c0,17.2-13.5,30.1-39,30.1c-20.8,0-40.2-10.3-40-33.4
		H621.8"/>
	<path id="path28" class="st2" d="M731.3,169.4c22.9,0,32.5-19.7,32.5-38.6c0-18.9-9.6-38.6-32.5-38.6c-22.9,0-32.5,19.7-32.5,38.6
		C698.9,149.7,708.5,169.4,731.3,169.4L731.3,169.4z M731.3,81.6c29.8,0,45,23.7,45,49.2c0,25.5-15.1,49.2-45,49.2s-45-23.7-45-49.2
		C686.4,105.3,701.5,81.6,731.3,81.6"/>
	<path id="path30" class="st2" d="M861.2,143.8c0,23.7-13.5,36.1-36.9,36.1c-24.2,0-38.5-11.2-38.5-36.1V83.8h12.5v59.9
		c0,16.6,9.5,25.6,26,25.6c15.8,0,24.5-9.1,24.5-25.6V83.8h12.5V143.8"/>
	<path id="path32" class="st2" d="M914.4,127.1c11.7,0,21.7-3,21.7-16.7c0-9.2-5-16-16.7-16h-31v32.7H914.4z M875.9,83.8h44.2
		c17.6,0,28.5,9.6,28.5,24.6c0,11.3-5,20.6-16.3,23.8v0.3c10.9,2.1,13.1,10.1,14.1,19.3c0.8,9.2,0.3,19.5,5.5,25.9H938
		c-3.5-3.8-1.6-13.9-3.4-23.1c-1.3-9.2-3.5-17-15.6-17h-30.5v40.1h-12.5L875.9,83.8"/>
	<path id="path34" class="st2" d="M1026.7,112.1c-2.6-13.3-13.3-20-26.3-20c-22.3,0-31.8,18.4-31.8,38c0,21.4,9.5,39.3,31.9,39.3
		c16.4,0,25.9-11.6,27.1-27.1h12.5c-2.4,23.4-17,37.6-40.6,37.6c-29.2,0-43.4-21.6-43.4-48.9c0-27.2,15.5-49.4,44.4-49.4
		c19.6,0,35.8,10.5,38.6,30.5L1026.7,112.1"/>
	<path id="path36" class="st2" d="M1053,83.8h64.8v10.5h-52.3v29.8h48.8v10.5h-48.8v32.5h52.7v10.5H1053V83.8"/>
</g>
</svg>
